<svg xmlns="http://www.w3.org/2000/svg" xmlns:xlink="http://www.w3.org/1999/xlink" viewBox="0 0 764 609.15"><defs><style>.cls-1{fill:url(#linear-gradient);}.cls-2{fill:url(#linear-gradient-3);}</style><linearGradient id="linear-gradient" x1="-23.05" y1="172.46" x2="896.9" y2="172.46" gradientUnits="userSpaceOnUse"><stop offset="0" stop-color="#0a1365"/><stop offset="0.1" stop-color="#141d71" stop-opacity="0.89"/><stop offset="0.71" stop-color="#4f59b6" stop-opacity="0.25"/><stop offset="1" stop-color="#6670d1" stop-opacity="0"/></linearGradient><linearGradient id="linear-gradient-3" x1="-23.05" y1="436.7" x2="896.9" y2="436.7" xlink:href="#linear-gradient"/></defs><title>Asset 6</title><g id="Layer_2" data-name="Layer 2"><g id="Layer_1-2" data-name="Layer 1"><path class="cls-1" d="M149.35,0,0,86.22V258.69l149.35,86.22,149.35-86.22V86.22Zm131,224.63A40.63,40.63,0,0,1,260,259.82L169.67,312A40.64,40.64,0,0,1,129,312L38.67,259.82a40.63,40.63,0,0,1-20.32-35.18V120.28A40.63,40.63,0,0,1,38.67,85.09L129,32.92a40.64,40.64,0,0,1,40.63,0L260,85.09a40.63,40.63,0,0,1,20.32,35.18Z"/><path class="cls-1" d="M280.35,120.28V224.63A40.63,40.63,0,0,1,260,259.82L169.67,312A40.64,40.64,0,0,1,129,312L38.67,259.82a40.63,40.63,0,0,1-20.32-35.18V120.28A40.63,40.63,0,0,1,38.67,85.09L129,32.92a40.64,40.64,0,0,1,40.63,0L260,85.09A40.63,40.63,0,0,1,280.35,120.28Z"/><path class="cls-2" d="M306.37,264.24,157,350.46V522.93l149.35,86.22,149.35-86.22V350.46Zm131,224.63a40.63,40.63,0,0,1-20.32,35.18l-90.37,52.18a40.64,40.64,0,0,1-40.63,0l-90.37-52.18a40.63,40.63,0,0,1-20.32-35.18V384.52a40.63,40.63,0,0,1,20.32-35.18l90.37-52.18a40.64,40.64,0,0,1,40.63,0l90.37,52.18a40.63,40.63,0,0,1,20.32,35.18Z"/><path class="cls-2" d="M437.37,384.52V488.87a40.63,40.63,0,0,1-20.32,35.18l-90.37,52.18a40.64,40.64,0,0,1-40.63,0l-90.37-52.18a40.63,40.63,0,0,1-20.32-35.18V384.52a40.63,40.63,0,0,1,20.32-35.18l90.37-52.18a40.64,40.64,0,0,1,40.63,0l90.37,52.18A40.63,40.63,0,0,1,437.37,384.52Z"/><path class="cls-1" d="M455.72,0,306.37,86.22V258.69l149.35,86.22,149.35-86.22V86.22Zm131,224.63a40.63,40.63,0,0,1-20.32,35.18L476,312a40.64,40.64,0,0,1-40.63,0L345,259.82a40.63,40.63,0,0,1-20.32-35.18V120.28A40.63,40.63,0,0,1,345,85.09L435.4,32.92a40.64,40.64,0,0,1,40.63,0L566.4,85.09a40.63,40.63,0,0,1,20.32,35.18Z"/><path class="cls-1" d="M586.72,120.28V224.63a40.63,40.63,0,0,1-20.32,35.18L476,312a40.64,40.64,0,0,1-40.63,0L345,259.82a40.63,40.63,0,0,1-20.32-35.18V120.28A40.63,40.63,0,0,1,345,85.09L435.4,32.92a40.64,40.64,0,0,1,40.63,0L566.4,85.09A40.63,40.63,0,0,1,586.72,120.28Z"/><path class="cls-2" d="M614.65,264.24,465.29,350.46V522.93l149.35,86.22L764,522.93V350.46Zm131,224.63a40.63,40.63,0,0,1-20.32,35.18L635,576.24a40.64,40.64,0,0,1-40.63,0L504,524.06a40.63,40.63,0,0,1-20.32-35.18V384.52A40.63,40.63,0,0,1,504,349.33l90.37-52.18a40.64,40.64,0,0,1,40.63,0l90.37,52.18a40.63,40.63,0,0,1,20.32,35.18Z"/><path class="cls-2" d="M745.65,384.52V488.87a40.63,40.63,0,0,1-20.32,35.18L635,576.24a40.64,40.64,0,0,1-40.63,0L504,524.06a40.63,40.63,0,0,1-20.32-35.18V384.52A40.63,40.63,0,0,1,504,349.33l90.37-52.18a40.64,40.64,0,0,1,40.63,0l90.37,52.18A40.63,40.63,0,0,1,745.65,384.52Z"/></g></g></svg>